PathFileType	4	(X/Y/Z)	C:\Users\gl24\Desktop\Patient 1 Synergy Driven Model\NMS_Pipeline_Results_NewModel\Right\TRC Data (Extra Frame)\Patient3_NormalGait_1pt2_02_Right_25.trc.trc
DataRate	CameraRate	NumFrames	NumMarkers	Units	OrigDataRate	OrigDataStartFrame	OrigNumFrames
87.500000000000	87.500000000000	5	33	mm	87.500000000000	89	       142
Frame#	Time	L.Toe			R.Toe			L.Heel			Neck			R.Shoulder			L.Shank.Lateral			R.Shank.Lateral			R.Midfoot.Lateral			L.Shoulder			R.Midfoot.Superior			R.Elbow			L.Wrist			L.Elbow			R.Heel			R.Wrist			L.Midfoot.Superior			R.Thigh.Superior			Sternum			R.Shank.Superior			R.Shank.Inferior			L.Thigh.Superior			R.Patella			L.Midfoot.Lateral			L.Shank.Inferior			L.Patella			R.Thigh.Inferior			R.Thigh.Lateral			L.Thigh.Inferior			L.Thigh.Lateral			R.Asis			L.Asis			L.Shank.Superior			Sacral			
		X1	Y1	Z1	X2	Y2	Z2	X3	Y3	Z3	X4	Y4	Z4	X5	Y5	Z5	X6	Y6	Z6	X7	Y7	Z7	X8	Y8	Z8	X9	Y9	Z9	X10	Y10	Z10	X11	Y11	Z11	X12	Y12	Z12	X13	Y13	Z13	X14	Y14	Z14	X15	Y15	Z15	X16	Y16	Z16	X17	Y17	Z17	X18	Y18	Z18	X19	Y19	Z19	X20	Y20	Z20	X21	Y21	Z21	X22	Y22	Z22	X23	Y23	Z23	X24	Y24	Z24	X25	Y25	Z25	X26	Y26	Z26	X27	Y27	Z27	X28	Y28	Z28	X29	Y29	Z29	X30	Y30	Z30	X31	Y31	Z31	X32	Y32	Z32	X33	Y33	Z33	

89	29.325714285714	885.726280177430	47.011995553765	396.885588010203	285.738789332341	17.816530893093	551.679219761524	595.141211558663	33.803663366666	440.798350442749	515.533883716573	1438.438495113571	468.158976488606	586.242882468185	1402.467721003997	629.427601212099	674.849524060081	324.530373138937	323.865619129014	462.927651041618	402.478510761233	625.915317319454	208.376691319217	213.677053641392	577.350934040798	585.464751552055	1410.471696323469	311.550941330851	293.451968586134	142.421784986484	543.644423086066	615.719428995932	1053.081236302923	736.347869203583	588.898397050464	829.081962367775	193.261475223080	519.344673042615	1077.436078029991	211.302603089128	198.914587937451	295.060408059716	511.742582820392	787.601925890857	863.943506133494	750.495650275462	766.078642798625	90.335730015283	409.281418511021	695.769985284320	682.577882839934	605.085011177538	678.271545379017	1354.414531215041	466.371267340012	553.191210677576	357.814085187964	588.983189607152	399.768086482353	269.931835462874	564.326891572574	759.083252108508	748.556861147484	340.319639184073	672.792149654023	432.365430296003	585.352214573596	672.348778298369	27.173833654247	374.660244850708	736.495241763474	230.967810486633	397.296417436378	798.658812374806	502.764829941391	391.712231397614	695.928510968381	568.353263013099	594.136962517554	599.951305436421	625.713143616654	638.426461502147	778.324039608417	625.378820672631	360.337375880703	686.313206831116	651.841672337020	300.964288520513	651.077694342303	946.304918874395	592.365325869333	668.723781006456	950.948935413225	333.391788893686	761.572247659437	384.269202217144	374.379420920323	481.346689081445	965.065047956480	458.086014518160	
90	29.337142857143	871.972117006932	46.637414867746	396.635475788774	292.970031437308	20.666304304382	553.290729749289	581.340023316713	33.895071090213	440.673482689826	515.266406021341	1440.010138682056	467.042331621825	584.778418748962	1403.796012698082	628.784970216839	664.947609169932	324.633414506855	324.164546071572	477.058173471635	406.387028225728	625.023497704726	219.961395373934	221.521380484491	576.482332095551	586.352745584923	1411.925022178282	311.019559322478	304.437967807575	148.726424268874	543.707789619346	611.433923468709	1054.069961710572	734.326925521058	598.138778713831	831.148737538501	191.863875491876	524.419251536269	1078.406473204474	209.180207670761	212.150474474654	302.631276689970	510.098646968382	775.358948493776	858.135592784608	749.733145738869	752.272356488491	90.221448285914	409.163406348772	701.226440211806	686.620560124330	604.233258011766	677.839409271167	1355.637770605069	466.469120673795	566.897017686998	360.586913284088	588.296512276576	412.239214444182	274.673132030331	563.754866325798	757.505002580544	747.862179053117	339.706046291521	686.815689965873	435.902507256614	584.405157188957	658.538046825291	27.237365226621	374.572785896495	725.314993928791	230.130585640951	396.901843006445	792.297625916078	500.734556928118	391.174467090471	705.404671008027	572.674341646842	593.216698168108	607.257115915952	626.949699408951	637.279637875614	774.210322341635	623.526072199492	359.590022973037	682.938329558251	652.031236735703	300.720732551203	649.427771264208	948.243190830619	592.115747899333	669.021670747402	952.353219213169	333.180730386149	753.046319778180	383.011087890953	373.986767212973	480.817623180153	966.342079359656	456.067250322248	
91	29.348571428571	858.268479057303	46.152308494962	396.404379988675	304.999366284237	24.301026604494	554.697109286461	567.561831816437	34.044853733222	440.577140088118	514.807269606662	1441.685586579385	465.991046369426	583.003649975378	1405.198320145989	628.240800622168	654.665012306415	324.675005537972	324.381770250421	490.974941060501	410.335868266634	624.161945120118	232.707385553193	227.234548153756	575.650669648724	587.091119927851	1413.562791452234	310.585456344073	317.561295894281	154.493315240913	543.691408158843	606.830291814891	1055.182357691434	732.388587546656	607.690591847105	833.590596015833	190.583874774998	529.527283896159	1079.580302800764	207.149623769610	224.983227422288	307.725909299530	508.519569477333	762.582540001946	852.817022551500	748.963029826312	738.544654597228	90.066314138082	409.033294299386	706.408071813800	691.136230926337	603.632380922128	677.212118562441	1357.015569069959	466.692734953105	580.618881893145	363.904099585781	587.702960369612	425.284894433437	279.167580621372	563.160904439902	755.388971913114	746.938983961592	339.419264563891	700.490071593029	440.319902306053	583.610646623136	644.767367607437	27.288043606576	374.529979833909	713.855004724189	229.369843289777	396.516236952483	785.147707868427	498.722017946775	390.587156385495	714.466088931207	577.646376887435	592.485688108502	614.255204069613	628.845777620460	636.263339178659	769.519946956363	621.572996316292	359.160884101638	678.941215083973	652.198733476274	300.575947447227	647.816193998454	950.467461330301	591.872909641187	669.133108106584	953.763575054361	333.029182713242	743.894899471338	381.832935722590	373.537383871111	480.213705872150	967.804083978618	454.104563660427	
92	29.360000000000	844.609898504039	45.583991819817	396.192296663313	321.454576924333	28.291639284997	555.755291854551	553.816770791178	34.262381181287	440.507871293680	514.178948964528	1443.438514639938	465.006049572170	580.976126882848	1406.666960218926	627.783710177460	644.070530494613	324.713635214303	324.491050641329	504.601292176513	414.176435160143	623.363516248615	246.474604166654	230.748121741594	574.909319705910	587.670815695067	1415.374575975513	310.236474577551	332.580230588270	159.511972799826	543.536862497305	601.845313214628	1056.403461714552	730.538259779007	617.497750435950	836.424568434937	189.421205230578	534.620635156439	1080.959191350499	205.220929247735	237.379809824497	310.385371568440	507.125422416002	749.337125546459	848.056198312652	748.175472922622	724.897719011378	89.891540432352	408.896962293156	711.321981148563	696.052814916841	603.288536433976	676.422596117586	1358.543703013312	467.014673591911	594.278300504774	367.635716075009	587.161309577024	438.810847165610	283.270979578930	562.528954217114	752.710433226864	745.918477003619	339.476493392283	713.735457819632	445.503613194204	582.981059437042	631.040363324763	27.350035094475	374.526528137218	702.159933325911	228.718057781769	396.144758060644	777.289880418992	496.796318962242	389.969155933842	723.108801478075	583.163000481000	591.980650302642	620.947918931121	631.312233093433	635.416368018017	764.293351730584	619.682419756320	359.021425801662	674.395984671114	652.390917821994	300.494439685826	646.303956607650	952.892473397548	591.566996955347	669.028087477361	955.171594402515	332.859449669033	734.195938665880	380.770240764147	373.054566164534	479.517254968464	969.458988884726	452.283781600960	
93	29.371428571429	830.982734450661	44.972614932173	395.997552700024	341.718743579356	32.198740588721	556.372763773768	540.107669461091	34.556720583158	440.464221100969	513.416095672174	1445.242757360992	464.089334363977	578.772984200582	1408.186764601996	627.399257575221	633.192675434211	324.806006894323	324.491647312752	517.907727173083	417.745846261836	622.675374498670	261.159593648637	232.084902744570	574.300148686486	588.096705161336	1417.342022537090	309.959871114168	349.216096453434	163.603417794539	543.216797809042	596.423320340932	1057.712926586959	728.777300094997	627.503695600328	839.660200470133	188.374179115363	539.651000044153	1082.538026119794	203.399011169885	249.452874947626	310.715189314201	506.013612252896	735.695324059583	843.892305036461	747.359740689651	711.321622556142	89.721682410240	408.758967472143	715.973524086053	701.294222527249	603.173098608438	675.511490985047	1360.202571956697	467.403832167986	607.826533148545	371.650290144630	586.618777479149	452.750806644685	286.843878905045	561.845486066111	749.477037259739	744.909622625237	339.839754454790	726.493193687100	451.333450445107	582.491358837900	617.353536973618	27.447106922391	374.557054619816	690.264329908861	228.199831150377	395.785578944549	768.804907721360	495.008280932994	389.326905851457	731.332834501649	589.115541982289	591.690486633439	627.351766093227	634.249425542928	634.773883714238	758.570739982749	617.963755213181	359.109859663528	669.370336830609	652.645330622559	300.448715827877	644.924847234933	955.429983901087	591.145878345431	668.677016117358	956.562160657051	332.605643543176	724.021630795170	379.850103449796	372.550771802819	478.690414593225	971.310010712539	450.681976299032	
